<?xml version="1.0" encoding="UTF-8" ?>
<!DOCTYPE svg PUBLIC "-//W3C//DTD SVG 1.1//EN" "http://www.w3.org/Graphics/SVG/1.1/DTD/svg11.dtd">
<svg width="1000pt" height="1000pt" viewBox="0 0 1000 1000" version="1.1" xmlns="http://www.w3.org/2000/svg">
<path fill="#fffefe" d=" M 0.00 0.00 L 1000.00 0.00 L 1000.00 1000.00 L 0.00 1000.00 L 0.00 0.00 Z" />
<path fill="#ff5a88" d=" M 60.43 18.69 C 64.85 17.65 69.44 18.07 73.95 18.00 C 238.31 18.00 402.67 18.01 567.02 17.99 C 582.95 18.81 597.58 30.09 602.92 45.06 C 605.89 52.34 605.89 60.30 606.00 68.03 C 606.00 140.69 606.00 213.34 606.00 286.00 C 453.00 286.00 300.00 286.00 147.00 286.00 C 147.01 292.43 146.98 298.86 147.03 305.29 C 300.00 305.25 452.96 305.32 605.93 305.26 C 606.07 319.12 605.98 332.98 605.98 346.83 C 452.99 346.81 299.99 346.83 147.00 346.82 C 147.01 353.30 146.96 359.78 147.06 366.25 C 300.02 366.20 452.98 366.29 605.94 366.21 C 606.06 381.41 605.99 396.62 605.98 411.82 C 452.98 411.81 299.99 411.83 147.00 411.82 C 147.01 418.29 146.95 424.77 147.07 431.24 C 300.03 431.20 452.98 431.27 605.94 431.21 C 606.05 445.07 606.00 458.92 605.97 472.78 C 452.98 472.74 299.99 472.78 147.00 472.76 C 147.02 479.24 146.94 485.72 147.08 492.20 C 215.41 492.20 283.73 492.13 352.06 492.19 C 375.03 491.97 398.03 492.61 420.99 491.84 C 437.63 492.61 454.30 492.00 470.94 492.07 C 515.93 492.26 560.94 492.17 605.95 492.17 C 606.05 503.75 605.98 515.32 605.99 526.90 C 453.00 526.89 300.01 526.90 147.02 526.89 C 146.99 533.35 146.98 539.82 147.04 546.29 C 300.00 546.25 452.97 546.32 605.94 546.25 C 606.07 560.11 605.98 573.97 605.98 587.82 C 452.99 587.80 299.99 587.81 147.00 587.81 C 147.01 594.29 146.95 600.77 147.07 607.25 C 300.03 607.21 452.98 607.28 605.94 607.21 C 606.06 622.41 605.99 637.61 605.98 652.81 C 452.99 652.79 299.99 652.81 147.00 652.81 C 147.01 659.28 146.94 665.76 147.08 672.24 C 300.04 672.18 453.00 672.25 605.96 672.20 C 606.02 686.06 606.03 699.92 605.95 713.78 C 452.97 713.69 299.98 713.76 147.00 713.74 C 147.02 720.23 146.93 726.71 147.10 733.20 C 157.73 733.08 168.38 733.42 179.01 732.97 C 194.03 733.26 209.06 733.41 224.07 732.85 C 236.69 733.49 249.34 733.15 261.96 732.98 C 271.31 733.70 280.65 732.50 290.00 733.18 C 301.00 733.20 312.00 733.10 323.01 733.15 C 330.98 732.49 338.95 733.52 346.94 733.18 C 398.30 733.15 449.67 733.02 501.04 733.20 C 515.70 732.38 530.38 733.57 545.06 733.16 C 556.69 733.30 568.31 732.92 579.93 733.16 C 588.57 732.27 597.23 733.84 605.87 732.78 C 606.20 803.53 605.86 874.29 606.04 945.05 C 606.34 949.23 604.01 952.89 602.67 956.70 C 598.47 968.46 588.63 977.81 577.01 982.14 C 575.42 982.75 573.71 982.97 572.02 983.01 C 466.01 982.99 360.00 983.00 253.99 983.00 C 246.67 982.96 239.29 983.25 232.04 982.06 C 203.67 976.28 175.38 968.25 149.98 954.07 C 139.94 947.78 129.27 942.41 120.10 934.83 C 112.75 929.23 105.71 923.23 98.57 917.37 C 90.49 908.42 81.93 899.89 74.30 890.54 C 64.64 876.36 54.24 862.52 47.11 846.82 C 40.43 831.61 34.21 816.12 30.27 799.94 C 28.19 792.80 28.72 785.30 28.65 777.97 C 28.46 718.32 28.31 658.67 28.10 599.02 C 28.12 572.02 27.79 545.03 27.31 518.03 C 26.64 492.68 27.68 467.32 27.89 441.96 C 28.34 359.53 28.42 277.09 28.73 194.65 C 145.16 194.64 261.58 194.65 378.01 194.65 C 411.64 194.58 445.28 194.77 478.91 194.55 C 484.27 191.92 490.34 190.80 495.18 187.13 C 513.18 175.99 518.40 149.54 506.94 131.96 C 502.57 125.55 496.92 119.56 489.61 116.58 C 486.55 115.23 483.48 113.51 480.04 113.53 C 329.70 113.53 179.36 113.53 29.03 113.53 C 29.00 98.02 28.87 82.50 29.34 66.99 C 30.24 59.41 30.54 51.61 33.42 44.44 C 37.85 32.32 48.06 22.46 60.43 18.69 Z" />
<path fill="#818cf4" d=" M 620.83 68.67 C 640.76 78.37 660.16 89.10 680.06 98.84 C 731.85 125.41 783.59 152.08 835.32 178.76 C 841.25 182.14 847.71 184.64 853.20 188.76 C 864.81 198.22 870.77 214.18 867.87 228.92 C 867.02 231.80 865.44 234.40 864.11 237.07 C 783.12 395.79 702.22 554.56 621.21 713.27 C 621.27 655.51 621.50 597.75 621.72 539.99 C 621.96 491.67 621.60 443.35 621.47 395.03 C 621.19 310.68 621.01 226.33 621.00 141.98 C 621.15 117.54 620.57 93.11 620.83 68.67 Z" />
<path fill="#fffefe" d=" M 98.00 286.00 C 105.00 286.00 112.00 286.00 119.00 286.00 C 119.00 292.43 119.00 298.87 119.00 305.30 C 112.02 305.28 105.03 305.27 98.04 305.31 C 97.97 298.87 98.01 292.43 98.00 286.00 Z" />
<path fill="#7647d6" d=" M 835.69 339.54 C 847.69 353.45 860.44 366.70 872.51 380.54 C 907.75 418.97 942.76 457.64 977.78 496.28 C 983.76 506.00 985.45 518.37 982.46 529.39 C 981.54 532.55 980.94 536.12 978.32 538.39 C 859.29 647.60 740.24 756.81 621.24 866.06 C 621.37 830.69 621.42 795.32 621.48 759.95 C 621.34 755.77 624.02 752.31 625.73 748.71 C 694.18 615.50 762.62 482.28 831.06 349.07 C 832.78 345.98 834.26 342.77 835.69 339.54 Z" />
<path fill="#fffefe" d=" M 98.01 346.81 C 105.01 346.83 112.00 346.82 119.00 346.82 C 118.99 353.30 119.02 359.78 118.98 366.26 C 112.01 366.23 105.04 366.22 98.07 366.26 C 97.95 359.78 98.00 353.29 98.01 346.81 Z" />
<path fill="#fffefe" d=" M 98.01 411.80 C 105.00 411.83 112.00 411.83 119.00 411.80 C 118.99 418.28 119.02 424.77 118.97 431.25 C 112.00 431.22 105.04 431.22 98.07 431.26 C 97.95 424.77 98.01 418.28 98.01 411.80 Z" />
<path fill="#fffefe" d=" M 98.00 472.74 C 105.00 472.77 112.00 472.77 119.00 472.75 C 118.99 479.24 119.05 485.73 118.94 492.22 C 111.99 492.18 105.04 492.20 98.09 492.20 C 97.94 485.72 98.02 479.23 98.00 472.74 Z" />
<path fill="#fffefe" d=" M 98.04 526.87 C 105.03 526.90 112.01 526.90 119.00 526.88 C 119.00 533.35 119.00 539.82 118.99 546.29 C 112.01 546.27 105.03 546.27 98.04 546.29 C 97.98 539.82 97.98 533.35 98.04 526.87 Z" />
<path fill="#4717ae" d=" M 920.30 615.28 C 932.74 603.65 945.39 592.26 957.99 580.82 C 958.01 698.55 958.00 816.28 958.00 934.01 C 957.89 939.35 958.23 944.72 957.85 950.06 C 954.82 965.53 942.65 979.34 927.11 982.91 C 825.08 983.11 723.04 982.94 621.01 983.00 C 621.04 951.69 621.06 920.38 621.10 889.07 C 634.20 877.22 646.84 864.85 660.25 853.36 C 669.83 843.89 680.13 835.19 690.01 826.05 C 715.78 802.11 741.87 778.52 767.83 754.79 C 802.01 723.29 836.46 692.09 870.80 660.76 C 887.14 645.43 903.94 630.59 920.30 615.28 Z" />
<path fill="#fffefe" d=" M 98.00 587.81 C 105.00 587.81 112.00 587.81 119.00 587.81 C 118.99 594.29 119.02 600.77 118.96 607.25 C 112.00 607.23 105.04 607.23 98.08 607.26 C 97.95 600.77 98.01 594.29 98.00 587.81 Z" />
<path fill="#fffefe" d=" M 98.00 652.79 C 105.00 652.81 112.00 652.81 119.00 652.79 C 118.99 659.27 119.03 665.75 118.96 672.23 C 112.00 672.21 105.04 672.20 98.09 672.25 C 97.94 665.76 98.02 659.28 98.00 652.79 Z" />
<path fill="#fffefe" d=" M 98.00 713.73 C 105.00 713.74 112.00 713.74 119.00 713.73 C 118.98 720.23 119.05 726.74 118.93 733.25 C 111.98 733.04 105.03 732.94 98.08 733.24 C 97.94 726.73 98.02 720.23 98.00 713.73 Z" />
</svg>
